<?xml version="1.0" encoding="utf-8"?>
<!-- Svg Vector Icons : http://www.onlinewebfonts.com/icon -->
<!DOCTYPE svg PUBLIC "-//W3C//DTD SVG 1.1//EN" "http://www.w3.org/Graphics/SVG/1.1/DTD/svg11.dtd">
<svg version="1.1" xmlns="http://www.w3.org/2000/svg" xmlns:xlink="http://www.w3.org/1999/xlink" x="0px" y="0px" viewBox="0 0 1000 1000" enable-background="new 0 0 1000 1000" xml:space="preserve">
<metadata> Svg Vector Icons : http://www.onlinewebfonts.com/icon </metadata>
<g><path d="M500,990c270.2,0,490-219.8,490-490c0-270.2-219.8-490-490-490C229.8,10,10,229.8,10,500C10,770.2,229.8,990,500,990L500,990z M500,71.2c236.4,0,428.7,192.3,428.7,428.8c0,236.4-192.3,428.8-428.7,428.8C263.6,928.8,71.3,736.4,71.3,500C71.3,263.6,263.6,71.2,500,71.2L500,71.2z M500,177.1c105.6,0,191.3,84.9,191.3,189.7c0,104.8-85.6,189.7-191.3,189.7c-105.6,0-191.2-84.9-191.2-189.7C308.8,262,394.4,177.1,500,177.1L500,177.1z M500,502.3c75.5,0,136.6-60.7,136.6-135.5c0-74.9-61.2-135.5-136.6-135.5c-75.5,0-136.6,60.7-136.6,135.5C363.4,441.6,424.5,502.3,500,502.3L500,502.3z M500,502.3c150.9,0,273.2,121.3,273.2,271h-54.7c0-119.7-97.9-216.8-218.6-216.8c-120.7,0-218.6,97.1-218.6,216.8h-54.6C226.8,623.6,349.1,502.3,500,502.3L500,502.3z"/></g>
</svg>